<?xml version="1.0" standalone="no"?>
<!DOCTYPE svg PUBLIC "-//W3C//DTD SVG 20010904//EN"
 "http://www.w3.org/TR/2001/REC-SVG-20010904/DTD/svg10.dtd">
<svg version="1.0" xmlns="http://www.w3.org/2000/svg"
 width="90.000000pt" height="90.000000pt" viewBox="0 0 90.000000 90.000000"
 preserveAspectRatio="xMidYMid meet">
<metadata>
Created by potrace 1.11, written by Peter Selinger 2001-2013
</metadata>
<g transform="translate(0.000000,90.000000) scale(0.100000,-0.100000)"
fill="#000000" stroke="none">
<path d="M395 794 c-118 -30 -197 -84 -245 -167 -62 -109 -61 -222 4 -330 104
-173 356 -211 510 -76 134 119 148 327 29 459 -71 79 -215 134 -298 114z m138
-44 c131 -41 211 -148 211 -285 0 -125 -61 -218 -178 -271 -91 -41 -172 -39
-262 6 -250 128 -214 481 56 554 74 20 97 19 173 -4z"/>
<path d="M345 638 c-3 -8 -4 -86 -3 -173 l3 -160 55 -3 c76 -4 118 5 146 33
33 33 33 97 0 130 -21 21 -22 26 -10 42 23 31 17 86 -12 114 -21 20 -38 24
-100 27 -57 3 -75 1 -79 -10z m133 -44 c26 -18 29 -56 6 -78 -8 -9 -32 -16
-52 -16 l-37 0 3 55 c4 52 5 55 31 55 14 0 37 -7 49 -16z m29 -160 c33 -45 -2
-94 -69 -94 l-43 0 0 61 0 61 49 -5 c32 -3 54 -11 63 -23z"/>
</g>
</svg>
